<svg id="Capa_1" enable-background="new 0 0 504.5 504.5" height="512" viewBox="0 0 504.5 504.5" width="512" xmlns="http://www.w3.org/2000/svg"><g><path d="m75.079 7.5h-46.329c-13.807 0-25 11.193-25 25v447c0 13.807 11.193 25 25 25h42.828l384.172-20c13.807 0 25-11.193 25-25v-382.733c0-13.807-11.193-25-25-25h-124.764l-6.966-2-8.034 2h-178.698c-7.07 0-13.809-2.993-18.549-8.239l-25.11-27.789c-4.741-5.246-11.48-8.239-18.55-8.239z" fill="#ffe187"/><g><path d="m475.75 51.767h-30c13.807 0 25 11.193 25 25v382.733c0 13.807-11.193 25-25 25h20c13.807 0 25-11.193 25-25l10-340.351v-42.382c0-13.807-11.193-25-25-25z" fill="#ffd26f"/></g><path d="m456.75 484.5-345.566 20h-39.606c-13.807 0-25-11.193-25-25v-360.351c0-13.807 11.193-25 25-25h385.172c13.807 0 25 11.193 25 25v340.351c0 13.807-11.193 25-25 25z" fill="#f9f6f9"/><path d="m475.75 94.149h-30c13.807 0 25 11.193 25 25v350.351c0 13.807-11.193 25-25 25h20c13.807 0 25-11.193 25-25l10-314.566v-35.784c0-13.808-11.193-25.001-25-25.001z" fill="#dedbec"/><path d="m456.75 504.5h-345.566c-13.807 0-25-11.193-25-25v-324.566c0-13.807 11.193-25 25-25h345.566c13.807 0 25 11.193 25 25v324.566c0 13.807-11.193 25-25 25z" fill="#ffe187"/><path d="m475.75 129.934h-30c13.807 0 25 11.193 25 25v324.566c0 13.807-11.193 25-25 25h30c13.807 0 25-11.193 25-25v-324.566c0-13.808-11.193-25-25-25z" fill="#ffd26f"/><path d="m365.006 464.5h90.744c2.761 0 5-2.239 5-5v-24.422c0-2.762-2.239-5-5-5h-90.744c-2.761 0-5 2.238-5 5v24.422c0 2.761 2.239 5 5 5z" fill="#f9f6f9"/><path d="m360.006 0c-24.272 0-44.02 19.747-44.02 44.02v7.748h15v-7.748c0-16.001 13.018-29.02 29.02-29.02 16.001 0 29.02 13.019 29.02 29.02v158.947c0 16.001-13.019 29.02-29.02 29.02s-29.02-13.018-29.02-29.02v-29.039c0-4.143-3.358-7.5-7.5-7.5s-7.5 3.357-7.5 7.5v29.039c0 24.273 19.747 44.02 44.02 44.02 24.272 0 44.02-19.747 44.02-44.02v-158.947c0-24.273-19.748-44.02-44.02-44.02z" fill="#245e7c"/></g></svg>