<svg id="Capa_1" enable-background="new 0 0 512 512" height="512" viewBox="0 0 512 512" width="512" xmlns="http://www.w3.org/2000/svg"><g><g><path d="m375 286h92v120h-92z" fill="#3d4566"/></g><path d="m375 346h92v60h-92z" fill="#2e2e4d"/><g><path d="m345 226h-300c-24.901 0-45 20.099-45 45v150c0 24.899 20.099 45 45 45h300c24.901 0 45-20.101 45-45v-150c0-24.901-20.099-45-45-45z" fill="#4d5e80"/></g><path d="m0 346h390v75c0 24.899-20.099 45-45 45h-300c-24.901 0-45-20.101-45-45z" fill="#3d4566"/><circle cx="105" cy="136" fill="#4d5e80" r="90"/><g><circle cx="255" cy="301" fill="#5ce6e6" r="15"/></g><g><circle cx="315" cy="301" fill="#ff6a4d" r="15"/></g><g><path d="m195 316h-120c-8.401 0-15 6.599-15 15v60c0 8.399 6.599 15 15 15h120c8.401 0 15-6.601 15-15v-60c0-8.401-6.599-15-15-15z" fill="#5ce6e6"/></g><g><path d="m105 181c-24.814 0-45-20.186-45-45s20.186-45 45-45 45 20.186 45 45-20.186 45-45 45z" fill="#e1e6f0"/></g><circle cx="285" cy="136" fill="#4d5e80" r="90"/><g><path d="m285 181c-24.814 0-45-20.186-45-45s20.186-45 45-45 45 20.186 45 45-20.186 45-45 45z" fill="#e1e6f0"/></g><path d="m210 346v45c0 8.399-6.599 15-15 15h-120c-8.401 0-15-6.601-15-15v-45z" fill="#41bed9"/><g><path d="m512 271v150c0 8.399-6.599 15-15 15h-15c-16.5 0-30-13.5-30-30v-120c0-16.5 13.5-30 30-30h15c8.401 0 15 6.599 15 15z" fill="#4d5e80"/></g><path d="m512 346v75c0 8.399-6.599 15-15 15h-15c-16.5 0-30-13.5-30-30v-60z" fill="#3d4566"/></g></svg>