<?xml version="1.0" encoding="iso-8859-1"?>
<!-- Generator: Adobe Illustrator 19.0.0, SVG Export Plug-In . SVG Version: 6.00 Build 0)  -->
<svg version="1.1" id="Layer_1" xmlns="http://www.w3.org/2000/svg" xmlns:xlink="http://www.w3.org/1999/xlink" x="0px" y="0px"
	 viewBox="0 0 512 512" style="enable-background:new 0 0 512 512;" xml:space="preserve">
<path style="fill:#333333;" d="M374.672,512H91.744c-15.976-0.048-28.92-12.992-28.968-28.968V28.968
	C62.824,12.992,75.768,0.048,91.744,0h328.512c15.976,0.048,28.92,12.992,28.968,28.968v408.696"/>
<path style="fill:#E21B1B;" d="M374.656,452.528V512l74.568-74.336h-59.696C381.328,437.688,374.68,444.328,374.656,452.528z"/>
<g>
	<path style="fill:#FFFFFF;" d="M198.168,308.168h42.752l-8.6,40.984c-5.768,3.592-12.008,6.384-18.536,8.28
		c-7.256,2.248-14.808,3.392-22.4,3.392c-9.728,0.664-19.376-2.176-27.2-8c-8.928-8.056-13.68-19.744-12.896-31.744
		c-0.024-9.192,1.864-18.288,5.536-26.712c3.896-9.584,10.456-17.864,18.896-23.848c8.488-5.752,18.552-8.712,28.8-8.48
		c9.464-0.472,18.808,2.24,26.552,7.696c6.976,5.624,11.688,13.576,13.264,22.4l-18.312,2.088c-1.224-4.792-3.96-9.064-7.792-12.184
		c-3.92-2.84-8.68-4.288-13.52-4.104c-13.24-0.216-25.2,7.888-29.904,20.264c-3.048,7.144-4.576,14.84-4.496,22.608
		c-0.528,6.424,1.432,12.808,5.48,17.824c4.28,4.088,10.088,6.184,16,5.776c4.384-0.024,8.744-0.632,12.968-1.8
		c3.96-1.016,7.808-2.448,11.472-4.264l2.928-14.2h-24.312L198.168,308.168z"/>
	<path style="fill:#FFFFFF;" d="M247.944,359.2l20-95.528h19.616L267.624,359.2H247.944z"/>
	<path style="fill:#FFFFFF;" d="M285.6,359.2l20-95.528h66.88l-3.392,16h-47.2l-4.8,22.936h46.264l-3.32,16h-46.264l-8.48,40.592
		H285.6z"/>
</g>
<g>
	<rect x="103.92" y="107.352" style="fill:#E21B1B;" width="76.04" height="76.04"/>
	<rect x="179.96" y="107.352" style="fill:#E21B1B;" width="76.04" height="76.04"/>
	<rect x="256" y="107.352" style="fill:#E21B1B;" width="76.04" height="76.04"/>
	<rect x="332.04" y="107.352" style="fill:#E21B1B;" width="76.04" height="76.04"/>
</g>
<g>
</g>
<g>
</g>
<g>
</g>
<g>
</g>
<g>
</g>
<g>
</g>
<g>
</g>
<g>
</g>
<g>
</g>
<g>
</g>
<g>
</g>
<g>
</g>
<g>
</g>
<g>
</g>
<g>
</g>
</svg>
