<?xml version="1.0"?>
<svg xmlns="http://www.w3.org/2000/svg" xmlns:xlink="http://www.w3.org/1999/xlink" xmlns:svgjs="http://svgjs.com/svgjs" version="1.1" width="512" height="512" x="0" y="0" viewBox="0 0 511.996 511.996" style="enable-background:new 0 0 512 512" xml:space="preserve" class=""><g><g xmlns="http://www.w3.org/2000/svg"><path d="m456.525 298.07c-.049-.02-.097-.04-.146-.058l-11.385-4.409c11.88-15.976 9.012-41.638-4.079-48.388-6.878-3.546-8.224-6.418-8.224-10.182v-4.795c5.941-3.881 9.878-10.585 9.878-18.196s-3.937-14.315-9.878-18.196v-14.038c0-55.66-64.583-86.106-107.316-51.472-2.593-2.236-3.219-4.375-3.219-6.953v-4.795c5.941-3.881 9.878-10.585 9.878-18.196s-3.937-14.315-9.878-18.196v-14.038c.001-36.627-29.641-66.158-66.151-66.158-.291 0-.585.002-.877.005-35.999.464-65.287 30.531-65.287 67.025v12.831c-6.232 3.823-10.399 10.698-10.399 18.53s4.167 14.708 10.399 18.53v4.458c0 3.279-1.025 5.883-5.838 8.844-3.195-10.993-11.369-16.575-24.367-16.575h-45.343c-20.75 0-37.632 16.881-37.632 37.631v33.069c0 2.798.574 5.464 1.607 7.889-5.504 4.083-9.103 10.751-9.103 18.271 0 12.393 9.745 22.475 21.723 22.475h4.072c1.451 13.946 8.534 26.02 19.054 34.114v8.105l-58.418 22.815c-.042.017-.084.034-.126.051-13.506 5.558-28.043 21.456-28.043 43.226v42.699c0 8.435 6.862 15.297 15.297 15.297h152.679l-29.271 11.433c-.042.016-.084.033-.126.05-13.507 5.558-28.044 21.456-28.044 43.226v42.698c0 8.434 6.861 15.297 15.297 15.297h85.238c4.143 0 7.5-3.358 7.5-7.5s-3.357-7.5-7.5-7.5h-44.485c0-14.141 0-23.787 0-38.857 0-4.142-3.357-7.5-7.5-7.5s-7.5 3.358-7.5 7.5v10.135h-26.05v-14.272c0-15.836 11.158-26.201 18.695-29.331l39.074-15.261c8.545 16.806 25.8 27.294 45.884 27.294 19.02 0 36.084-10.659 44.585-27.191l39.148 15.162c9.296 3.861 18.684 15.156 18.684 29.327v14.273h-26.049v-10.135c0-4.142-3.357-7.5-7.5-7.5s-7.5 3.358-7.5 7.5v38.857h-44.486c-4.143 0-7.5 3.358-7.5 7.5s3.357 7.5 7.5 7.5h85.239c8.434 0 15.297-6.862 15.297-15.297 0-31.593-.001-7.541-.001-42.698 0-18.656-11.531-36.431-28.042-43.226-.049-.02-.097-.04-.146-.058l-29.5-11.425h152.926c8.435 0 15.297-6.862 15.297-15.296 0-4.262 0-38.114 0-42.698.001-18.656-11.53-36.432-28.042-43.227zm-303.562 197.708v-12.504h26.049v13.722h-25.753c-.163 0-.296-.133-.296-.297zm180.02 1.218v-13.722h26.049v13.425c0 .164-.133.297-.296.297zm136.585-155.7v14.273h-26.05v-10.135c0-4.142-3.357-7.5-7.5-7.5s-7.5 3.358-7.5 7.5v38.856h-141.103c-.002-2.291-.001-1.295-.004-4.386 10.663-8.257 17.656-20.737 19.084-34.217h4.076c11.979 0 21.724-10.082 21.724-22.475 0-.024-.003-.048-.003-.072-.027-9.213-5.563-17.655-14.151-20.995.02-.621.01-1.67.01-4.122l3.554-1.378c4.976 9.955 13.222 18.017 23.449 22.701 3.768 1.724 8.217.069 9.942-3.696 1.725-3.766.069-8.217-3.696-9.941-6.666-3.053-12.123-8.175-15.626-14.517l3.486-1.352c3.184-1.229 10.825-3.598 10.825-12.296v-2.457c11.544 3.869 24.149 3.351 32.867.082l.002 2.425c.016 4.904 2.98 9.225 7.556 10.993l6.625 2.566c-3.751 6.73-9.63 12.086-16.807 15.155-3.809 1.628-5.576 6.036-3.948 9.844 1.631 3.813 6.042 5.575 9.845 3.948 10.909-4.664 19.711-13.02 24.989-23.495 5.092 1.972 34.84 13.493 39.67 15.363 9.297 3.862 18.684 15.157 18.684 29.328zm-249.352-3.108v-20.947h38.63c9.211 0 18.116-3.383 25.004-9.505 2.077 2.849 4.792 5.203 7.93 6.857v23.594c0 23.421-16.993 37.314-35.164 37.314-20.072.001-36.4-14.256-36.4-37.313zm-18.792-7.5c-3.707 0-6.723-3.353-6.723-7.475 0-3.583 2.333-6.662 5.422-7.324 1.604.617 3.493 1.061 5.093 1.234v13.564h-3.792zm-13.04-76.101c-.798 3.098-1.188 6.493-1.188 9.398v15.393s-7.239-2.804-10.313-3.994l-.007-8.184c4.351-3.381 8.354-7.676 11.508-12.613zm10.503-117.27c4.802-5.316 5.954-10.78 5.954-17.202h1.404c1.535 13.819 8.409 25.373 18.305 33.212v8.394c-1.966.762-8.7 3.373-16.935 6.565v-13.914c0-7.043-3.402-13.184-8.728-17.055zm-4.446-38.925c0-3.785 3.108-6.724 6.724-6.724h4.79v13.447h-4.79c-3.603 0-6.724-2.925-6.724-6.723zm61.566-18.796c5.316 6.345 13.028 10.664 21.532 11.385 9.464.807 7.147.688 13.501.688v20.947c0 23.174-17.478 36.649-34.58 36.554-19.782-.065-35.505-13.872-35.505-36.554v-20.948c14.537 0 25.681-.862 35.052-12.072zm54.305 12.072c3.647 0 6.724 2.966 6.724 6.724 0 3.727-3.043 6.723-6.724 6.723h-4.271v-13.447zm56.23 101.577c2.646 3.159 5.875 5.799 9.481 7.75 6.353 3.437 11.312 3.572 15.379 3.919 5.628.482 4.3.404 10.173.404v20.947c0 31.726-32.24 45.631-54.832 30.655 0 0-15.253-9.058-15.253-28.537 0-9.38 0-13.943 0-23.065 14.639 0 25.773-.972 35.052-12.073zm54.305 12.073c3.64 0 6.724 2.959 6.724 6.724 0 3.752-3.069 6.724-6.724 6.724h-4.271v-13.447h4.271zm-142.035 84.941c-3.951 7.391-11.603 11.982-19.966 11.982-23.801 0-36.288 0-51.462 0-2.824 0-5.166-2.319-5.185-5.157 0-.01-.002-.02-.002-.03 0-16.083 0-18.42 0-33.069 0-12.477 10.15-22.631 22.631-22.631h45.342c8.307 0 9.501 2.931 10.376 7.404 1.528 7.822 8.768 12.897 16.529 12.3h.008c2.757-.207 6.067 2.318 6.067 6.019v25.812 8.697.002c-.002.341-.344.654-.656.654-4.481 0-8.059-3.699-8.059-8.06 0-3.817-2.587-7.131-6.292-8.058-3.684-.925-7.55.797-9.331 4.135zm39.338-8.322v-14.86c0-6.841-3.208-12.809-8.229-16.68 4.364-5.134 5.454-10.198 5.454-16.631h1.404c1.039 9.35 4.452 17.548 9.684 24.402 2.47 3.258 5.356 6.224 8.621 8.81v8.394c-1.965.761-8.699 3.372-16.934 6.565zm-28.173-69.895c0 7.512 3.913 14.552 10.399 18.53v4.458c0 4.178-2.055 6.463-5.601 8.693-3.217-12.241-12.265-17.368-24.604-17.368h-45.343c-.013 0-.025.001-.038.001-3.537.004-7.517.54-11.213 1.716 13.387-11.076 9.634-32.579-5.972-38.63.015-.421.01-4.644.01-5.067l3.529-1.368c17.315 35.065 69.73 37.704 89.231.494v10.011c-6.377 3.911-10.398 10.886-10.398 18.53zm-95.941 30.333c.952-3.099 1.613-6.478 1.924-9.392h4.076c1.269 0 2.745-.135 4.067-.396-3.999 2.649-7.553 6.207-10.067 9.788zm78.381-80.855.002 2.425c.017 4.911 2.984 9.227 7.554 10.992 2.505.97 4.221 1.635 6.613 2.561-13.95 24.821-48.883 22.796-61.362.051 6.017-2.333 14.326-4.372 14.326-13.654v-2.457c10.186 3.414 22.401 3.789 32.867.082zm-73.784 41.515h1.403c3.707 0 6.724 3.353 6.724 7.474s-3.017 7.474-6.724 7.474h-3.792v-14.045c.529-.152 1.68-.567 2.389-.903zm108.146 113.608c.729-.211 1.833-.638 2.389-.903h1.403c3.707 0 6.723 3.353 6.723 7.474 0 4.122-3.016 7.475-6.723 7.475h-3.792zm9.711-97.878h-4.79c-3.634 0-6.724-2.98-6.724-6.723 0-3.717 3.066-6.724 6.724-6.724h4.79zm-14.777-51.495-14.293-5.535-.002-8.557c10.261-8.335 16.753-20.075 18.283-33.063h1.456c0 7.212 1.647 13.266 7.631 18.884-6.712 8.524-11.122 18.587-13.075 28.271zm132.328 91.276c3.997 2.062 6.508 20.832-4.049 29.246-18.1-7.01-12.393-4.8-32.038-12.408l-.001-8.557c10.124-8.223 16.746-19.929 18.282-33.063h1.457c0 12.05 5.23 19.049 16.349 24.782zm-31.567-115.146c9.814 9.688 15.219 22.618 15.219 36.408v10.51h-8.617-11.546c-1 0-1.18-.036-8.188-.634-6.812-.577-13.123-5.984-14.821-12.97-2.009-8.323-13.944-8.405-15.971-.008-1.66 6.868-7.897 12.472-14.998 13.016-10.522.794-3.888.596-28.176.596v-9.637c0-45.897 54.703-69.262 87.098-37.281zm-197.633-76.369c0-28.329 22.646-51.668 50.48-52.026 28.487-.394 51.836 22.564 51.836 51.154v10.51c-24.826 0-18.987.164-28.351-.634-6.903-.585-13.138-6.045-14.821-12.97-.895-3.707-4.179-6.295-7.986-6.295-3.71 0-7.072 2.51-7.984 6.288-1.546 6.397-7.218 12.28-15.152 13.029-9.226.777-5.659.583-28.021.583v-9.639zm-113.18 84.25c0-12.479 10.152-22.631 22.632-22.631h45.343c8.306 0 9.5 2.931 10.375 7.404 1.496 7.648 8.64 12.904 16.537 12.3 2.76-.216 6.067 2.326 6.067 6.019v24.866 9.643c0 .337-.342.656-.656.656-4.445 0-8.059-3.667-8.059-8.059 0-3.341-1.98-6.295-4.958-7.602-4.002-1.758-8.638-.107-10.661 3.672-.001.003-.003.005-.005.008-3.951 7.391-11.603 11.981-19.966 11.981-23.801 0-36.288 0-51.462 0-2.8 0-5.188-2.29-5.188-5.187v-33.07zm-7.495 59.228c0-3.618 2.329-6.647 5.408-7.33 1.578.608 3.478 1.063 5.106 1.239v13.565h-3.792c-3.706.001-6.722-3.352-6.722-7.474zm25.515 14.975v-20.947h38.63c9.163 0 18.065-3.329 25.004-9.505 2.077 2.849 4.791 5.203 7.93 6.857v23.594c0 22.968-15.727 37.314-35.164 37.314-19.662.001-36.4-13.918-36.4-37.313zm52.202 49.757.002 2.35c.014 4.912 2.981 9.229 7.553 10.995 2.922 1.132 1.575.61 7.129 2.761-6.183 10.783-17.706 17.651-30.486 17.651-13.725 0-25.563-6.797-31.805-17.793l8.125-3.173c3.426-1.339 6.614-5.365 6.614-10.488v-2.439c10.072 3.32 22.068 3.754 32.868.136zm-100.76 36.723 39.073-15.26c8.545 16.805 25.8 27.294 45.884 27.294 17.057 0 32.539-8.575 41.685-22.268.238 1 .435 1.801 1.032 3.209-5.734 4.275-9.096 11.052-9.096 18.273 0 12.393 9.745 22.475 21.723 22.475h4.072c1.464 14.074 8.733 26.206 19.054 34.177v4.427h-141.073c0-14.14 0-23.786 0-38.856 0-4.142-3.357-7.5-7.5-7.5s-7.5 3.358-7.5 7.5v10.135h-26.049v-14.274c0-15.836 11.158-26.201 18.695-29.332zm-18.695 72.031v-.92-12.505h26.049v13.722h-25.752c-.164 0-.297-.134-.297-.297zm214.187 37.708c-13.725 0-25.563-6.797-31.805-17.793l8.125-3.173c3.443-1.342 6.614-5.494 6.614-10.487v-2.439c10.359 3.415 22.2 3.673 32.867.136.002 2.087-.637 8.741 5.838 12.516 1.089.635 1.004.554 8.847 3.59-6.182 10.78-17.706 17.65-30.486 17.65zm212.953-37.708c0 .164-.133.297-.297.297h-25.753v-13.722h26.05z" fill="#0172b1" data-original="#000000" style="" class=""/></g></g></svg>
