<?xml version="1.0"?>
<svg xmlns="http://www.w3.org/2000/svg" xmlns:xlink="http://www.w3.org/1999/xlink" xmlns:svgjs="http://svgjs.com/svgjs" version="1.1" width="512" height="512" x="0" y="0" viewBox="0 0 511.998 511.998" style="enable-background:new 0 0 512 512" xml:space="preserve" class=""><g><path xmlns="http://www.w3.org/2000/svg" d="m504.498 324.813c4.143 0 7.5-3.358 7.5-7.5v-123.57c0-2.095-.93-4.178-2.487-5.577l-44.112-39.663.004-63.345c0-4.142-3.357-7.5-7.5-7.5h-71.293l-32.407-29.142c-1.377-1.238-3.163-1.923-5.015-1.923h-41.761c-4.143 0-7.5 3.358-7.5 7.5s3.357 7.5 7.5 7.5h38.885l17.865 16.065h-216.34l17.849-16.065h109.062c4.143 0 7.5-3.358 7.5-7.5s-3.357-7.5-7.5-7.5h-111.94c-1.853 0-3.64.686-5.017 1.925l-32.377 29.14h-71.321c-4.142 0-7.5 3.358-7.5 7.5l.005 63.321-44.115 39.703c-1.581 1.422-2.483 3.448-2.483 5.574 0 .023.003.046.004.069 0 .017-.004.033-.004.05v264.031c0 4.061 3.439 7.5 7.5 7.5h496.996c4.062 0 7.502-3.443 7.502-7.503v-107.91c0-4.142-3.357-7.5-7.5-7.5s-7.5 3.358-7.5 7.5v92.305l-136.227-108.985 136.228-122.72v106.719c-.001 4.143 3.356 7.501 7.499 7.501zm-457.9-156.154v50.196l-27.887-25.098zm-31.598 42.056 136.227 122.604-136.227 108.982zm245.264 73.65h-8.531c-10.381 0-10.382-16.062 0-16.062h7.622c2.907 0 5.297 1.911 6.257 4.656 3.22 9.21 17.053 5.71 14.367-4.312-2.114-7.888-8.719-13.441-16.48-14.935v-9.287c0-4.142-3.357-7.5-7.5-7.5-4.142 0-7.5 3.358-7.5 7.5v9.11c-27.272 3.851-24.832 45.83 3.234 45.83h8.531c10.382 0 10.382 16.063 0 16.063h-9.622c-2.907 0-5.016-2.027-6.257-4.655-4.22-8.937-16.053-3.603-14.367 4.311.993 4.663 4.111 8.385 7.699 11.072h-24.519c-17.049-34.576-8.51-109.252 42.801-109.252 51.31 0 59.85 74.677 42.801 109.252h-25.197c17.145-12.229 9.402-41.791-13.339-41.791zm-63.482 41.79h-31.093l-13.183-11.865c9.35-5.219 15.712-15.404 15.712-27.088 0-16.983-13.44-30.8-29.96-30.8-12.774 0-23.7 8.264-28.001 19.863l-17.598-15.838v-13.179c16.243-3.985 26.355-14.1 30.336-30.345h95.397c-26.727 18.813-38.061 66.766-21.61 109.252zm-56.922-23.246-16.523-14.87c-.014-.279-.04-.557-.04-.835 0-8.712 6.711-15.8 14.96-15.8s14.96 7.088 14.96 15.8c.001 8.139-5.859 14.857-13.357 15.705zm343.255 147.497h-454.235l136.562-109.251h181.111zm-94.897-162.007-16.138 14.538c-7.671-.668-13.722-7.463-13.722-15.734 0-8.712 6.711-15.8 14.96-15.8 8.295-.001 15.458 9.069 14.9 16.996zm31.12-28.034-17.924 16.146c-4.237-11.728-15.231-20.109-28.096-20.109-16.52 0-29.96 13.817-29.96 30.8 0 11.79 6.48 22.048 15.968 27.223l-13.02 11.729h-31.092c14.176-35.442 7.939-83.163-21.609-109.252h95.398c3.98 16.246 14.091 26.361 30.335 30.345zm31.06-27.981-16.061 14.468c.16-9.766.327-13.349-7.5-13.879-14.39-.974-22.213-9.209-23.56-23.57 0-4.142-3.357-7.5-7.5-7.5h-279.56c-4.142 0-7.5 3.358-7.5 7.5-1.347 14.362-9.179 22.467-23.56 23.57-7.993.613-7.192 6.653-7.5 13.954l-16.06-14.454.056-46.63h388.744v46.541zm0-92.602h-265.45c-4.142 0-7.5 3.358-7.5 7.5s3.358 7.5 7.5 7.5h265.45v16.06h-388.726l.02-16.06h90.576c4.142 0 7.5-3.358 7.5-7.5s-3.358-7.5-7.5-7.5h-90.67v-16.06h388.8zm.004-31.063h-388.809v-16.062h388.809zm15 110.147v-50.188l27.882 25.07z" fill="#0172b1" data-original="#000000" style="" class=""/></g></svg>
